<svg width="88" height="88" viewBox="0 0 88 88" fill="none" xmlns="http://www.w3.org/2000/svg">
<rect x="0.977778" y="0.977778" width="86.0444" height="86.0444" rx="4.69964" fill="#0F1115"/>
<rect x="0.977778" y="0.977778" width="86.0444" height="86.0444" rx="4.69964" stroke="#252831" stroke-width="1.95556"/>
<path d="M43.0223 76.2668C60.3027 76.2668 74.3112 62.2583 74.3112 44.9779C74.3112 27.6975 60.3027 13.689 43.0223 13.689C25.7419 13.689 11.7334 27.6975 11.7334 44.9779C11.7334 62.2583 25.7419 76.2668 43.0223 76.2668Z" fill="#12437B"/>
<path d="M51.2578 52.8961L51.2546 41.2422L55.0551 36.0651L55.0563 57.7776L50.0223 57.7764L44.8635 50.4913L39.6959 57.7778L34.9538 57.7757L44.8464 44.097" fill="white"/>
<path d="M35.7407 38.0221L35.744 49.676L31.9435 54.8531L31.9423 33.1406L36.9763 33.1418L42.1351 40.4269L47.3027 33.1404L52.0448 33.1425L42.1521 46.8212" fill="white"/>
<path d="M35.7407 38.0221L35.744 49.676L31.9435 54.8531L31.9423 33.1406L36.9763 33.1418L42.1351 40.4269L47.3027 33.1404L52.0448 33.1425L42.1521 46.8212" stroke="black" stroke-width="0.0102451" stroke-miterlimit="10"/>
<path d="M68.3356 26.5868C72.2194 31.9324 74.3112 38.3704 74.3112 44.9779L63.5697 44.9779C63.5697 40.6387 62.196 36.4109 59.6455 32.9004L68.3356 26.5868Z" fill="#1475E1"/>
<path d="M54.7433 73.9884C60.8698 71.5132 66.0553 67.162 69.5568 61.5585L60.4475 55.8664C58.1481 59.5462 54.7427 62.4036 50.7195 64.0291L54.7433 73.9884Z" fill="#1475E1"/>
<path d="M17.709 26.5868C13.8252 31.9324 11.7334 38.3704 11.7334 44.9779L22.4749 44.9779C22.4749 40.6387 23.8486 36.4109 26.3991 32.9004L17.709 26.5868Z" fill="#1475E1"/>
<path d="M31.3013 73.9884C25.1748 71.5132 19.9893 67.162 16.4878 61.5585L25.5971 55.8664C27.8965 59.5462 31.3019 62.4036 35.3251 64.0291L31.3013 73.9884Z" fill="#1475E1"/>
<path d="M31.5549 15.8662C38.9594 12.9495 47.197 12.9638 54.5913 15.9064L50.6196 25.8866C45.7638 23.9543 40.3542 23.9448 35.4917 25.8602L31.5549 15.8662Z" fill="#1475E1"/>
</svg>
