<svg width="16" height="14" viewBox="0 0 16 14" fill="none" xmlns="http://www.w3.org/2000/svg">
<path d="M15.094 1.47698C14.4777 0.936478 13.8125 0.470672 13.095 0.0784405C12.7825 -0.095147 12.3617 0.0278719 12.1277 0.363516L6.49608 8.40552L3.18976 3.74678C2.9546 3.41114 2.53169 3.28587 2.21857 3.45839C1.50389 3.85169 0.836482 4.31806 0.222344 4.85693C-0.049006 5.09262 -0.0753873 5.53148 0.161931 5.86876C0.161931 5.86876 4.50643 11.9997 5.03656 12.7391C5.80122 13.8053 7.22176 13.7498 7.95728 12.7391C8.50164 11.9909 15.1566 2.48555 15.1566 2.48555C15.3917 2.1499 15.3632 1.71267 15.094 1.47698Z" fill="#0E9F6E"/>
</svg>
