<svg width="24" height="24" viewBox="0 0 24 24" fill="none" xmlns="http://www.w3.org/2000/svg">
<path d="M12 24C18.6274 24 24 18.6274 24 12C24 5.37258 18.6274 0 12 0C5.37258 0 0 5.37258 0 12C0 18.6274 5.37258 24 12 24Z" fill="#12437B"/>
<path d="M15.1592 15.0371L15.158 10.5676L16.6155 8.58203L16.616 16.9093L14.6854 16.9088L12.7068 14.1148L10.7249 16.9093L8.90625 16.9086L12.7003 11.6625" fill="white"/>
<path d="M9.20678 9.33317L9.20802 13.8027L7.75047 15.7882L7.75 7.46102L9.68063 7.46148L11.6592 10.2555L13.641 7.46094L15.4597 7.46171L11.6657 12.7078" fill="white"/>
<path d="M9.20678 9.33317L9.20802 13.8027L7.75047 15.7882L7.75 7.46102L9.68063 7.46148L11.6592 10.2555L13.641 7.46094L15.4597 7.46171L11.6657 12.7078" stroke="black" stroke-width="0.00392923" stroke-miterlimit="10"/>
<path d="M21.7082 4.94658C23.1977 6.99675 24 9.46585 24 12L19.8804 12C19.8804 10.3358 19.3536 8.71437 18.3754 7.36802L21.7082 4.94658Z" fill="#1475E1"/>
<path d="M16.4953 23.1262C18.8449 22.1769 20.8337 20.5081 22.1766 18.359L18.683 16.176C17.8011 17.5873 16.495 18.6832 14.9521 19.3066L16.4953 23.1262Z" fill="#1475E1"/>
<path d="M2.2918 4.94658C0.802259 6.99675 2.55888e-07 9.46585 1.90735e-06 12L4.1196 12C4.1196 10.3358 4.64644 8.71437 5.62462 7.36802L2.2918 4.94658Z" fill="#1475E1"/>
<path d="M7.50472 23.1262C5.1551 22.1769 3.16632 20.5081 1.82342 18.359L5.31704 16.176C6.19892 17.5873 7.50495 18.6832 9.04795 19.3066L7.50472 23.1262Z" fill="#1475E1"/>
<path d="M7.60199 0.834988C10.4418 -0.283632 13.6011 -0.278118 16.437 0.850407L14.9137 4.67806C13.0514 3.93696 10.9767 3.93334 9.11182 4.66794L7.60199 0.834988Z" fill="#1475E1"/>
</svg>
