<svg width="20" height="20" viewBox="0 0 20 20" fill="none" xmlns="http://www.w3.org/2000/svg">
<path d="M10 20C15.5228 20 20 15.5228 20 10C20 4.47715 15.5228 0 10 0C4.47715 0 0 4.47715 0 10C0 15.5228 4.47715 20 10 20Z" fill="#12437B"/>
<path d="M12.6321 12.5306L12.6311 8.80597L13.8457 7.15137L13.8461 14.0907L12.2373 14.0903L10.5885 11.762L8.9369 14.0908L7.42133 14.0901L10.583 9.71839" fill="white"/>
<path d="M7.67278 7.77699L7.67382 11.5016L6.45919 13.1562L6.4588 6.21686L8.06766 6.21725L9.71644 8.54556L11.368 6.2168L12.8836 6.21744L9.72187 10.5892" fill="white"/>
<path d="M7.67278 7.77699L7.67382 11.5016L6.45919 13.1562L6.4588 6.21686L8.06766 6.21725L9.71644 8.54556L11.368 6.2168L12.8836 6.21744L9.72187 10.5892" stroke="black" stroke-width="0.00327436" stroke-miterlimit="10"/>
<path d="M18.0902 4.12215C19.3315 5.83063 20 7.88821 20 10L16.567 10C16.567 8.61319 16.128 7.26197 15.3128 6.14002L18.0902 4.12215Z" fill="#1475E1"/>
<path d="M13.7461 19.2718C15.7041 18.4807 17.3614 17.0901 18.4805 15.2992L15.5691 13.48C14.8342 14.6561 13.7459 15.5693 12.46 16.0888L13.7461 19.2718Z" fill="#1475E1"/>
<path d="M1.90983 4.12215C0.668547 5.83063 -1.90735e-06 7.88821 0 10L3.433 10C3.433 8.61319 3.87203 7.26197 4.68718 6.14002L1.90983 4.12215Z" fill="#1475E1"/>
<path d="M6.25393 19.2718C4.29591 18.4807 2.6386 17.0901 1.51952 15.2992L4.43087 13.48C5.16577 14.6561 6.25412 15.5693 7.53996 16.0888L6.25393 19.2718Z" fill="#1475E1"/>
<path d="M6.33499 0.695823C8.70148 -0.23636 11.3342 -0.231765 13.6975 0.708673L12.4281 3.89839C10.8762 3.2808 9.14726 3.27778 7.59319 3.88995L6.33499 0.695823Z" fill="#1475E1"/>
</svg>
