<svg width="17" height="13" viewBox="0 0 17 13" fill="none" xmlns="http://www.w3.org/2000/svg">
<path d="M10.5727 0C10.4115 0.286278 10.2667 0.582433 10.1351 0.885166C8.88468 0.697606 7.61122 0.697606 6.35751 0.885166C6.22918 0.582433 6.0811 0.286278 5.91987 0C4.74513 0.200732 3.6 0.552819 2.51411 1.04969C0.362067 4.23827 -0.220365 7.34457 0.0692092 10.4081C1.3295 11.3393 2.74116 12.0501 4.24496 12.5042C4.58388 12.0501 4.88333 11.5664 5.14 11.0629C4.65299 10.882 4.18243 10.6549 3.73163 10.3917C3.85008 10.3061 3.96526 10.2173 4.07713 10.1317C6.71947 11.3755 9.77972 11.3755 12.4253 10.1317C12.5372 10.2238 12.6524 10.3127 12.7709 10.3917C12.32 10.6582 11.8495 10.882 11.3592 11.0662C11.6159 11.5697 11.9153 12.0534 12.2542 12.5075C13.758 12.0534 15.1696 11.3459 16.43 10.4147C16.7722 6.86086 15.8443 3.78087 13.9784 1.05299C12.8959 0.556115 11.7508 0.204016 10.576 0.00657947L10.5727 0ZM5.50854 8.52261C4.69577 8.52261 4.0212 7.78552 4.0212 6.87403C4.0212 5.96255 4.66944 5.22216 5.50526 5.22216C6.34107 5.22216 7.00575 5.96583 6.99259 6.87403C6.97943 7.78223 6.33777 8.52261 5.50854 8.52261ZM10.9907 8.52261C10.1746 8.52261 9.5066 7.78552 9.5066 6.87403C9.5066 5.96255 10.1548 5.22216 10.9907 5.22216C11.8265 5.22216 12.4879 5.96583 12.4747 6.87403C12.4615 7.78223 11.8199 8.52261 10.9907 8.52261Z" fill="#B1BAD3"/>
</svg>
