<svg width="18" height="18" viewBox="0 0 18 18" fill="none" xmlns="http://www.w3.org/2000/svg">
<path fill-rule="evenodd" clip-rule="evenodd" d="M10.7447 4.32001C9.26694 4.93467 6.31347 6.20686 1.88429 8.13657C1.16506 8.42259 0.788296 8.70239 0.753997 8.97598C0.696032 9.43836 1.27506 9.62043 2.06354 9.86836C2.1708 9.90209 2.28193 9.93703 2.39586 9.97407C3.1716 10.2262 4.21512 10.5212 4.7576 10.533C5.24969 10.5436 5.7989 10.3407 6.40526 9.92435C10.5436 7.13087 12.6798 5.71891 12.8139 5.68847C12.9085 5.667 13.0396 5.64 13.1285 5.71896C13.2173 5.79792 13.2086 5.94746 13.1992 5.98757C13.1418 6.23211 10.8689 8.34519 9.6927 9.43872C9.32602 9.77962 9.06592 10.0214 9.01275 10.0767C8.89364 10.2004 8.77225 10.3174 8.65558 10.4299C7.93489 11.1246 7.39444 11.6456 8.6855 12.4964C9.30593 12.9053 9.8024 13.2433 10.2977 13.5806C10.8386 13.949 11.3781 14.3164 12.0762 14.774C12.254 14.8906 12.4238 15.0116 12.5893 15.1296C13.2188 15.5784 13.7843 15.9815 14.483 15.9172C14.889 15.8799 15.3084 15.4981 15.5213 14.3596C16.0247 11.6688 17.014 5.83875 17.2427 3.43632C17.2627 3.22583 17.2375 2.95646 17.2173 2.83821C17.197 2.71995 17.1547 2.55147 17.001 2.42675C16.819 2.27904 16.538 2.24789 16.4123 2.25011C15.8408 2.26017 14.9641 2.56503 10.7447 4.32001Z" fill="#B1BAD3"/>
</svg>
